<?xml version="1.0" encoding="UTF-8"?><svg id="Layer_2" xmlns="http://www.w3.org/2000/svg" viewBox="0 0 892.18 371.25"><defs><style>.cls-1{fill:#fff;}</style></defs><g id="Layer_1-2"><g><g><path class="cls-1" d="M87.24,52.12c-10.74,9.27-16.89,19.43-23.2,29.41-20.05,31.75-37,64.86-44.02,102.22-.92,4.9-3.46,5.75-7.91,4.36-10.79-3.36-14.29-9.26-10.81-20.3,6.21-19.66,16.26-37.56,26.01-55.61,13.69-25.33,27.87-50.33,45.71-73.05,2.07-2.64,4.27-5.21,6.62-7.6,13.53-13.75,25.97-14.48,41.37-2.88,4.95,3.73,3.46,7.79,1.76,12.23-9.11,23.79-15.54,48.33-20.61,73.26-.52,2.58-1.67,5.17,.07,9.54,2.89-4.96,5.31-8.72,7.34-12.68,14.57-28.42,31.89-55.03,52.04-79.81,10.3-12.67,29.66-13.43,40.84-1.56,2.61,2.77,2.03,5.37,.73,8.38-18.92,43.79-23.88,90.12-25.21,137.17-.14,4.91,3.83,12.89-5.73,13.73-11.2,.99-21.37-6.21-21.73-15.04-.87-21.48,1.77-42.73,4.67-63.95,2.73-19.98,8.43-39.33,13.57-60.38-8,3.61-12.39,9.09-16.37,14.38-25.58,33.98-43.06,71.74-51.41,113.56-1.21,6.06-1.08,12.68-10.32,11.8-11.24-1.07-18.91-6.48-19.22-14.49-.91-23.31,1.03-46.43,4.9-69.43,2.7-16.02,6.59-31.74,10.88-47.39,.3-1.09,.04-2.33,.04-5.9Z"/><path class="cls-1" d="M414.81,109.63c8.44-10.12,16.57-20.42,27.69-27.68,6.49-4.24,13.39-11.27,21.46-6.45,8.97,5.35,9.26,15.56,7.3,24.78-2.85,13.37-10.03,24.52-22.18,31.14-7.17,3.91-7.55,7.87-4.6,14.64,6.44,14.83,14.64,28.24,27.76,38.03,4.59,3.43,3.8,6.06,.15,9.47-10.3,9.63-22.8,9-30.7-2.63-11.3-16.64-14.21-36.19-17.5-55.48-.63-3.72,1.78-6.17,4.34-8.58,6-5.66,11.81-11.53,17.69-17.32,3.74-3.68,6.85-7.88,9.08-12.59,1.49-3.15,4.6-7.11,1.33-10.06-3.34-3.02-7.21,.35-9.71,2.56-25.67,22.67-44.82,49.17-48.43,84.54-.29,2.86,1.21,6.9-2.47,8.09-3.72,1.2-5.81-2.3-8.13-4.75-9.29-9.81-9.45-21.74-6.87-33.62,7.2-33.14,21.49-63.61,36.87-93.56,7.11-13.85,14.24-27.76,23.73-40.24,10.92-14.36,22.03-13.03,30.23,3.44,2.66,5.35,.11,8.31-3.47,11.8-24.47,23.85-41.2,52.7-53.56,84.47Z"/><path class="cls-1" d="M250.66,149.05c-5.19,6.65-10.4,13.29-15.57,19.97-4.26,5.5-8.68,10.54-16.78,8.16-10.48-3.09-17.59-10.71-18.13-19.52-.06-.91-.16-1.86-.01-2.75,4.64-28.85,14.13-55.6,34-77.79,2.72-3.04,5.88-5.46,10.3-5.05,4.62,.42,9.47,1.03,12.32,5.06,3.04,4.31-1.22,7.33-3.06,10.58-11,19.46-21.95,38.95-26.93,61.04-.9,4.02-3.41,9.8,.47,11.77,3.51,1.78,5.98-4.01,8.24-7.04,13.15-17.64,26.84-34.91,34.48-56.02,1.94-5.35,5.62-10.13,8.84-14.95,2.89-4.31,6.93-5.33,12.06-3.76,12.66,3.88,13.56,5.98,7.89,18.11-5.7,12.18-11.39,24.39-16.49,36.83-4.35,10.6-6.62,21.62-3.06,33.13,.86,2.76,2.76,6.19-.4,8.48-2.84,2.05-5.78-.28-8.65-1.19-11.75-3.74-17.03-12.22-17.21-24.54l-2.32-.51Z"/><path class="cls-1" d="M348.7,122.69c-.4,6.35-.19,12.07,8.55,11.78,1.77-.06,3.9,.33,4.06,2.72,.13,1.81-1.53,2.88-2.93,3.07-9.61,1.35-9.58,8.16-9.78,15.64-.52,19.41-11.28,33.53-28.48,38.25-9.8,2.69-17.8,.11-24.8-7.45-6.66-7.18-4.95-14.56-1.95-22.19,5.7-14.51,16.84-23.34,31.47-27.02,8.1-2.03,9.69-5.56,7.56-12.87-1.79-6.15-2.95-12.5-4.15-18.8-2.96-15.52,5.4-31.92,19.43-38.99,6.21-3.13,11.56-2.54,16.97,1.8,15.72,12.62,19.12,23.66,11.35,37.78-1.67,3.03-3.63,6.5-7.57,5.12-4.2-1.47-1.87-5.13-1.17-7.89,.92-3.66,2.22-7.65-2.04-9.73-4.48-2.18-7.59,1.05-9.95,4.34-5.25,7.3-5.53,16.02-6.56,24.44Zm-18.92,27.46c-7.82,.76-22.56,20.04-21.26,27.78,.74,4.4,3.05,6.06,7.02,3.51,9.79-6.28,15.13-15.73,18.02-26.67,.67-2.55-.22-4.98-3.78-4.62Z"/><path class="cls-1" d="M637.45,149.14c-.39-28.27,22.55-62.64,48.83-73.37,9.53-3.89,17.96-2.09,25.55,4.48,6.87,5.94,4.53,13.36,2.85,20.45-5.63,23.78-23.78,35.17-44.23,44.12-4.54,1.99-9.08,3.35-9.39,9.71-.58,11.81,6.15,17.24,17.45,13.3,9.51-3.31,16.21-10.72,23.69-16.96,2.16-1.8,4.17-5.9,7.45-3,3.39,2.99-.54,5.52-2.19,7.69-8.51,11.22-19.74,18.99-32.4,24.83-3.45,1.59-7.05,1.75-10.77,1-14.07-2.84-26.64-17.92-26.84-32.26Zm58.06-53.9c-1.94,1.12-3.83,2.1-5.6,3.25-9.2,5.96-15.59,14.45-20.52,23.98-1.83,3.54-6.17,8.46-2.88,11.42,3.63,3.26,7.62-2.04,10.63-4.46,9.03-7.26,17.57-15.16,21.32-26.68,.96-2.96,2.47-6.66-2.95-7.52Z"/><path class="cls-1" d="M481.21,141.04c2.69-23.55,16.2-46.96,42.11-62.66,4.46-2.7,9.44-4.37,14.77-4.53,14.06-.43,22.77,9.73,20.39,23.2-3.16,17.94-13.59,30.38-28.92,39.17-6.09,3.49-12.26,7.04-18.79,9.5-7.61,2.87-8.31,7.89-6.62,14.6,1.86,7.41,6.77,9.81,13.79,8.51,7.48-1.38,13.35-5.87,18.93-10.68,2.77-2.39,5.21-5.17,7.97-7.58,2.23-1.95,4.88-4.94,7.81-1.87,2.58,2.72-.41,5.07-2.2,6.96-6.31,6.64-12.77,13.07-20.39,18.36-10.3,7.15-20.53,10.51-32.35,3.63-11.73-6.83-17.28-16.84-16.5-36.61Zm26.71-5.71c16.17-6.33,27.49-17.39,33.71-33.42,.73-1.89,2.08-4.19,.15-5.96-1.96-1.79-4.03-.1-5.86,.79-16.08,7.83-22.58,22.73-28,38.6Z"/><path class="cls-1" d="M723.07,146.28c3.65-29.91,17.29-53.53,44.12-68.6,3.38-1.9,7.41-3.08,11.26-3.6,15.29-2.02,25.38,9.72,21.95,24.53-5.75,24.86-23.99,37.19-45.55,46.29-5,2.11-9.51,3.92-9.15,10.74,.6,11.44,7.88,16.41,18.8,11.99,8.95-3.63,15.73-10.35,22.55-16.96,2.04-1.97,4.28-5.71,7.52-2.84,3.2,2.84-.03,5.65-1.88,7.81-8.44,9.83-18.26,18.06-29.99,23.68-12.54,6.01-30.71-2.39-36.82-16.72-2.21-5.17-2.82-10.59-2.82-16.32Zm27.33-10.81c16.05-6.66,27.58-17.66,33.48-34,.67-1.85,1.92-4.32-.37-5.85-1.68-1.12-3.54,.25-5.14,1.07-15.81,8.1-23.34,22.3-27.97,38.79Z"/><path class="cls-1" d="M572.44,159.47c1.46-20.73,7.69-37.08,13.26-53.59,1.98-5.86,5.32-11.73-4.89-13.46-3.16-.54-4.23-4.23-3.7-7.56,.56-3.56,3.52-4.39,6.25-3.94,10.54,1.75,15.49-4.49,19.84-12.58,3.02-5.63,6.74-10.95,10.62-16.05,2.72-3.57,5.61-8.01,10.8-7.62,6.35,.48,13.87,.98,17.31,6.65,2.81,4.64-3.49,8.34-5.7,12.47-1.15,2.14-2.91,3.93-4.25,5.98q-6.54,10.06,4.76,11.64c2.22,.31,4.37,.78,4.9,3.32,.56,2.72-1.5,3.76-3.55,4.57-1.13,.45-2.37,.94-3.54,.89-14.19-.72-20.42,8.08-24.78,19.86-5.85,15.81-11.83,31.59-12.93,48.58-.85,13.18,3.74,16.29,15.89,11.6,.29-.11,.56-.27,.85-.34,3.65-.84,8.5-6.12,10.36-2.51,2.29,4.43-4.18,7.19-7.53,9.89-8.61,6.93-17.87,8.97-27.92,2.62-8.76-5.54-17.17-11.19-16.06-20.41Z"/><path class="cls-1" d="M846.75,114.18c10.06-8.91,17.73-16.53,24.46-25.13,2.26-2.89,4.33-5.98,6.93-8.53,2.88-2.84,6.51-3.14,10.19-1.26,3.59,1.84,4.36,4.95,3.59,8.55-1.88,8.79-1.94,17.59-.48,26.44,.92,5.57-2.11,9.7-6.19,12.43-4.74,3.16-7.91-1.2-10.9-4.04-11.69-11.1-14.31-10.98-25.76,1.78-11.77,13.11-18.32,28.7-22.27,45.69-1,4.32,.07,11.77-8.26,10.3-7.61-1.35-13.72-9.13-12.16-15.61,6.91-28.58,14.9-56.82,27.61-83.49,1.95-4.08,3.75-9.19,9.37-8.8,6.22,.43,11.8,3.37,16.14,7.87,2.83,2.94,.08,5.69-1.55,8.17-4.66,7.1-8.52,14.52-10.71,25.63Z"/></g><g><path class="cls-1" d="M79.2,214.85c17.8,7.14,34.91,14.38,52.28,20.91,170.85,64.29,343.88,73.53,519.36,20.36,3-.91,6.81-3.67,9.1,.07,1.85,3.02-.44,6.59-2.36,9.33-6.78,9.69-16.75,15.04-27.41,19.17-37.26,14.45-76.51,18.85-115.86,22.28-60.73,5.3-121.52,5.87-182.43,.83,7.51,3.84,15.71,5.43,23.92,6.74,54.53,8.67,109.19,6.72,163.83,1.35,36.58-3.6,72.92-8.75,108.04-20.21,6.67-2.17,13.04-5.32,20.26-5.54,6.12-.18,11.56,1.21,15.5,6.28,5.75,7.4,4.39,12.13-4.53,14.57-108.81,29.85-219.06,42.88-331.55,27.03-69.92-9.85-136.02-30.57-194.71-71.28-18.95-13.14-36.05-28.35-50.99-45.94-1.14-1.34-2.97-2.33-2.45-5.96Z"/><path class="cls-1" d="M674.27,301.82c-4.62-7.6-9.62-13.61-17.74-16.18-3.42-1.08-5.92-2.57-2.19-6.22,8.36-8.18,9.56-18.72,9.78-29.6,.2-9.76-.6-19.56,1.21-29.26,3.19-17.15,15.47-28.49,32.44-29.95,12.42-1.07,22.52,6.13,25.12,17.91,3.02,13.65-5.6,24.47-19.49,22.62-8.82-1.18-11.06,2.22-12.6,9.64-4.13,19.85-1.38,38.82,5.7,57.51,5.79,15.26,10.22,30.86,7.43,47.41-3.43,20.29-21.31,30.79-38.46,22.96-12.24-5.59-15.45-18.9-6.92-28.78,3.55-4.11,7.77-6.34,12.84-3.03,6.39,4.18,7.61-.79,8.48-4.88,2.33-11.02-.98-21.12-5.59-30.15Zm35.47-81.39c4.64-3.13,6.6-7.43,3.45-12.95-2.91-5.09-7.77-6.13-12.54-3.65-5.35,2.78-6.57,7.93-3.75,13.22,2.73,5.12,7.29,5.9,12.84,3.38Z"/><path class="cls-1" d="M788.75,248.86c11.98-.9,13.73-8.75,15.28-17.06,7.24,10.44,4.7,20.45-5.89,24.87-8.23,3.44-17.09,4.61-25.81,6.16-23.25,4.14-45.12,11.1-61.7,29.26-3.65,4-6.51,2.39-8.51-1.62-5.79-11.63-7.12-23.86-4.63-36.58,.76-3.87,3.44-5.58,6.73-6.75,15.68-5.61,29.14-15.37,43.59-23.29,3.02-1.65,5.22-4.1,7.36-6.75,8.09-10,17.16-11.72,27.2-5.35,11.2,7.1,15.45,19.25,10.41,29.96-.88,1.88-2.03,3.63-4.03,7.15Z"/></g></g></g></svg>