<?xml version="1.0" encoding="UTF-8"?><svg id="Layer_2" xmlns="http://www.w3.org/2000/svg" viewBox="0 0 300 346"><g id="Layer_1-2"><g><path d="M293.07,189.02c.6,7.38,.46,14.66-.5,22.06-.7,5.39-1.42,10.37-4.16,15.02,3.38,2.05,.84,4.43,.12,6.43-1.08,2.96-.93,6.17-2.46,9.07-1.53,2.9-2.2,6.25-3.51,9.28-1.25,2.9-2.39,6.02-4.37,8.38-3.56,4.25-4.54,9.82-8.09,14.06-3.84,4.59-3.21,10.27-3.03,15.77,.13,3.98,1.2,7.83,1.24,11.92,.04,3.79,4.05,8.76,8.31,11.68,1.81,1.24,5.29,2,4.21,4.6-.88,2.1-4.26,2.24-6.76,1.79-2.45-.44-4.87-1.12-7.22-1.94-3.45-1.21-6.79-2.32-10.61-2.3-5.33,.03-6.9-2.07-6.38-7.11,.59-5.63-.91-7.61-6.59-8.71,3.83-4.88,3.75-5.42-1.21-9.28-5.89-4.58-7.29-8.89-4.51-15.74,1.68-4.12,1.45-8.06,.44-12.21-1.32-5.44-4.64-10.23-4.47-17.32-3.84,4.91-6.51,8.8-8.87,12.94-3,5.26-3.82,11.59-8.74,16.02-2.05,1.85-1.81,5.53-1.86,8.58-.11,7.27-1.41,13.81-7.03,19.5-4.98,5.05-6.43,12.25-6.83,19.38-.18,3.2,1.52,2.55,3.44,1.74,6.89-2.9,13.88-5.57,20.03-9.98,1.27-.91,2.5-2.14,5.47-2.06-5.43,4.46-10.95,6.97-16.13,9.97-1.65,.96-3.97,.97-4.4,3.54-.07,.43-1.07,1.09-1.51,1-5.29-1.07-10.12,1.95-14.37,3.49-7.32,2.65-15.24,1.47-22.14,4.97-.29,.15-.87-.29-1.74-.62,2.13-2.9,5.35-1.48,7.72-2.49,1.53-.66,3.49-.54,2.18-3.11-.26-.52-.1-1.31,.01-1.95,1.41-7.81,1.49-8.09-6.07-10.04-4.97-1.28-7.13-3.57-5.8-8.76,.53-2.05,.41-4.26,.71-6.38,.96-6.75-5.55-9.75-7.51-15.03-.4-1.09-1.37-.54-2.11-.17-1.4,.71-1.62,1.76-1.43,3.31,.74,5.94,1.48,11.88,1.84,17.85,.21,3.39,.08,7.25-5.32,5.57-1.78-.55-2.11,.82-2.33,1.81-1.04,4.68-2.36,9.36-2.15,14.21,.15,3.56,1.75,5.55,5.77,4.73,1.73-.35,3.59-.06,5.5,.53-5.03,.71-9.92,1.92-14.65,3.55-5.96,2.06-9.87-6.29-15.97-2.62-.03-1.61,.37-2.83,1.92-2.65,6.61,.76,6.26-4.5,6.44-8.2,.18-3.79,.03-7.52,1.2-11.22,.62-1.97,.05-3.64-1.59-5.34-4.51-4.66-4.51-8.51-.45-13.71,1.53-1.96,3.27-3.76,4.78-5.74,1.79-2.35,3.79-4.27,.35-7.51-2.21-2.08,1.18-4.64,2.31-6.88,.61-1.21,2.8-2.27,1.18-3.72-1.51-1.36-2.6,.75-3.69,1.51-2.72,1.91-5.05,4.48-7.95,6.02-9.12,4.84-8.52,12.42-6.12,20.47,.89,2.99,.75,5.48-1.04,8.01-1.49,2.1-4.52,4.11-.85,6.92,.22,.17,.17,1.23,0,1.3-3.96,1.66-3.35,6.13-5.5,8.88-1.53,1.95-3.42,2.55-5.75,1.82-2.11-.67-4.03-1.46-4.51-4.08-.53-2.94-1.69-5.8-1.89-8.75-.28-4.11-2.03-3.59-4.31-1.76-4.83,3.86-10.25,3.27-15.74,2.33-1.07-.18-2.58-.21-2.61-1.77-.03-1.55,1.17-2.15,2.54-2.62,11.54-3.96,15.29-9.84,14.36-21.89-.16-2.02-1.46-2.45-2.69-3.14-3.43-1.93-5.97-4.6-7.97-8.03-1.61-2.75-1.76-5.3,.58-7.16,4.97-3.97,3.81-8.95,2.96-13.99-.56-3.31-3.22-5.83-3.4-9.32-.16-3.07-.56-6.12-.96-10.2-3.01,7.41-3.62,14.02-3.23,20.83,.19,3.3-.06,6.39-2.91,9.07-2.79,2.61-3.61,6.48-2.43,10.19,1.14,3.6,.92,7.22,1.19,10.85,.13,1.77,.3,3.03-2.34,3.28-2.66,.25-.88,3.98-3.16,5.34-1.86-1.24-1.1-3.15-.96-4.74,.29-3.17-1.78-4.66-4.18-5.02-2.62-.38-5.89-.69-6.23,3.57-.21,2.67-1.8,5.41,1.24,7.69,1.06,.8,.85,2.62-.11,3.66-3.4,3.66-.82,5.55,2.06,7.32,4.65,2.86,9.36,5.63,14.01,8.48,.68,.42,1.2,1.1,2.04,1.91-7.66,1.29-14.95,1.57-22.17-.86-1.4-.47-3.09-.93-4.1,.64-1.11,1.73,.84,2.14,1.61,3.06,2.86,3.37,2.41,5.05-1.8,6.36-1.08,.34-2.42,.04-2.73,1.58-.32,1.56,.16,3.69-1.96,4.15-2.93,.63-5.97,.58-8.94,.07-1.29-.22-2.21-1.2-1.85-2.51,.68-2.54-.28-3.37-2.69-3.21-1.18,.08-2.44,.05-2.74-1.49-.28-1.44,.19-2.61,1.47-3.42,1.5-.95,2.99-1.93,4.7-3.03-1.04-.92-1.79-1.85-2.77-2.4-2.54-1.41-2.64-2.97-.95-5.23,3.23-4.33,3.08-15.01-.52-18.77-4.05-4.22-5.7-8.86-4.23-14.55,.64-2.5,.24-4.91-1.13-7.18,1.93-.61,2.5,2.86,4.47,.89,1.35-1.36,2.45-2.63,1.55-4.77-.37-.88-.66-2.2-.26-2.93,4.59-8.36-.58-16.59-.3-24.89,.09-2.71-1.17-5.04-3.34-7.73-4.49-5.57-8.86-12.1-8.65-20.16,.37-13.77,3.19-27.11,7.06-40.24,2.97-10.09,4.25-20.51,9.63-30.19,2.83-5.09,4.49-11.42,7.71-16.74,1.28-2.13,2.59-4.19,5.21-1.1,1.41,1.66,2.92,.38,4.74-.78-4.14-2.37-4.79-5.34-2.26-9.07,1.76-2.59-1.28-2.05-2.43-3.1,2.86-1.75,5.95-3,7.47-6.22,.78-1.66,1.87-1.36,3.57-.29,2.35,1.48,6.15,5.68,7.01-1.5,.12-1.02,.44-.47,.52,.05,.09,.63-.12,1.37,.72,1.67,1.93-1.17,.79-3.72,2.91-5.94-.89,3.97,3.61,4.73,2.79,8.4-1.09,4.93-5.06,.91-8.01,2.97,5.21,.93,9.18,2.78,13.14,4.73,2.65,1.3,3.85,2.72,2.74,5.82-.93,2.58-1.25,5.37-1.97,8.65,3.5-2.21,6.48-3.94,9.31-5.91,3.59-2.5,6.46-1.67,9.11,1.47,3.67,4.34,6.92,8.93,8.83,14.45,2.49-1.48,2.28-3.41,1.14-5.5-.88-1.6-1.89-3.13-2.7-4.76-2.82-5.7-2.32-7.73,3.61-9.76,3.09-1.06,3.21-1.89,1.69-4.31-2.22-3.54-.92-7.85,2.72-9.46,.53-.23,1.34-.39,1.79-.15,2.48,1.35,2.48,1.4,2.82-1.52,2.92-24.62,6.04-49.22,8.59-73.89,.57-5.47,1.49-11.65-3.4-16.3-.56-.53-.78-1.45-1.07-2.22-.09-.24,.09-.58,.15-.88q3.34,2.68,4.55,.14c5.37,15.48,14.4,28.59,22.45,42.25,1.99,3.39,5.06,4.28,8.84,5.25-5.71-.68-4.66,1.7-2.88,4.73,4.97,8.46,9.73,17.05,14.78,25.47,2.1,3.51,3.81,6.67-.01,10.1-.57,.51-.39,1.57,.64,2.72,.98-6.65,6.12-3.83,9.16-3.55,2.33,.21,4.15-.54,8.29-1.13-6.79,3.99-2.96,7.28-2.4,11.04,.59,4.02,2.24,4.88,5.21,6.54,3.33,1.85,2.45,6.16,2.63,9.58,.05,1-1.18,2.38,1.01,2.46,1.58,.06,1.9-1,2.03-2.26,.13-1.32,.19-2.67,.46-3.97,1.89-8.99,5.26-11.32,14.37-10.15,2.31,.3,4.67,.68,6.96,.47,9.28-.83,17.96,2.28,26.88,3.82,2.84,.49,3.22,2.36,3.7,4.55,1.1,5-1.03,10.85,2.42,15,3.13,3.76,2.27,7.32,1.56,11.11-.22,1.18,2.39,4.82-2.24,3.51-.43-.12-.47,1.39-.7,2.13-1.11,3.55-1.54,7.78-6.72,8-.59,.02-1.49,.41-1.68,.86-1.25,2.96,1.1,5.3,1.57,7.99,.28,1.63,1.1,3.58,3.15,3.21,5.98-1.07,7.11,4.04,7.33,7.22,.41,5.96,2.97,10.85,5.32,15.93,1.12,2.41,1.42,4.33-.94,6.14-1.97,1.51-.42,2.69-.06,4.48,1.69,8.25,6.72,15.61,6.62,24.16-.03,2.38-.64,6.27-5.43,4.77-1.91-.6-1.72,1.39-1.57,2.73,.52,4.63,.9,9.29,1.59,13.9,.99,6.65,.46,13.26-.46,20.62,2.79-2,3.61-4.53,4.83-6.69,9.42-16.6,14.93-34.45,16.93-53.41,.18-1.67-.75-3.74,2.38-3.86,1.44-.06,.85-1.92,.87-3,.06-3.93,.02-7.87,.02-11.8Zm-192.05-49.93c-2.74,.99-1.82,3.17-.73,4.27,2.39,2.41,5.3,1.96,8.19,.47,2.78-1.43,4.84-3.47,3.5-6.6-1.22-2.84-5.38-1.55-7.21-4-1.86,1.64-4.55,2.74-3.88,6.01l.13-.16Zm81.26,25.03c-1.67,1.12-2.99,1.88-4.82-.3-1.97-2.35-4.66-4.12-7.12-6.04-2.77-2.16-5.86-3.63-9.73-3.71,5.96,1.11,6.61,7.41,10.73,10.21,.82,.56,1.73,1.21,2.66,1.32,3.33,.4,3.66,2.58,2.94,5.04-2.3,7.88-2.79,16.33-7.35,23.51-.57,.89-1.9,1.67-.73,2.99,1.08,1.22,2.76,.98,3.71,.49,1.82-.95,4.28-1.67,4.06-4.61-.2-2.58,1.18-4.29,2.61-6.43,1.65-2.45,5.67-1.91,5.98-5.72,.08-1,2.01-.49,2.13,1.14,.07,.97-.18,2.04,1.3,2.13,1.5-4.45-.9-8.77-.32-13.23,.17-1.31-1.42-4.3-3.18-3.8-3.78,1.09-2.67-1.49-3.03-3.12,2.26,.53,3.51-.32,3.64-2.68,.1-1.79-.5-3.59-2.11-4.12-1.63-.53-2.55,1.36-3.29,2.5-1.42,2.18,1.09,3.01,1.92,4.41Zm-33.22-85.05c-4.36-8.41-3.61-17.99-6.1-26.86-1.81-6.45-2.4-13.24-3.54-19.88-3.63,24.25-4.91,48.48-9.65,72.41,1.52,.64,3.58-1.64,4.8,.88,.93,1.92,3.37,4.96,2.97,5.37-2.56,2.62-.59,7.13-3.45,8.88-3.7,2.27-2.35,4.69-1.53,7.54,2.72,9.47,4.44,19.24-1.38,27.94-4,5.97-5.48,12.33-6.56,19.05-.37,2.3-.48,4.65-.95,6.93-.41,2,.29,4.91-3.39,4.77-.46-.02-1.61,1.28-.75,1.91,3.43,2.53,4.37,6.27,5.77,9.98,1.11,2.94,5.8,5.03,1.36,8.79,.13,.11,.28,.2,.37,.33,2.22,3.14,1.71,6.27-.55,8.99-1.72,2.07-1.51,3.59-.14,5.72,2.02,3.15,5.22,6.83,4.1,10.15-1.11,3.28,.19,5.4,1.59,6.67,2.73,2.5,3.73,5.82,5.7,8.62,3.47,4.93,4.32,11.11,7.8,16.05,1.94-1.01,2.12-2.73,2.26-4.35,.43-4.98,1.13-9.97,1.04-14.95-.22-12.4,.69-24.56,5.03-36.32,.54-1.47,.16-3.29,.14-4.94,0-.86-.27-1.35-1.36-1.61-7.53-1.78-10.72-10.85-6.04-16.86,1.25-1.61,3.26-2.82,2.02-5.58-2.55-5.67-3.09-11.9-4.47-17.89-1.45-6.27-2.97-12.69-3.05-19.07-.08-6.22,1.94-12.45,2.43-18.72,.27-3.51,.97-5.03,4.78-2.96-.06-2.03-.57-3.17-1.9-3.78-1.74-.81-2.6-3.47-2.28-3.88,2.82-3.67,.78-7.16,.07-10.71-.67-3.31-.39-6.79,2.24-8.78,3.48-2.63,2.95-5.5,1.99-8.78,1.92,2.85-.09,7.52,4.46,9.21,3.47,1.29,6.18,6.37,4.61,9.75-3.17,6.83-2.05,13.67-1.2,20.83,.74-.2,1.41-.26,1.96-.55,8.78-4.54,17.28-5.49,25.75,.99,2.93,2.24,2.99-.88,3.36-2.71,.57-2.8-2.04-4.34-2.74-6.74-1.62-5.59-4.73-10.3-9.97-12.35,.32-6.08,6.36-11.68,.43-18.11-1.32-1.43-2.08-3.39-3.08-5.12-5.32-9.21-10.97-18.26-15.86-27.7-4.66-8.99-10.73-17.05-15.46-25.96,1.69,12.86,3.64,25.56,5.7,38.24,.82,5.06,.96,10.24,2.66,15.15Zm35.96,228.12c1.11-.48,3.42,1.81,4.38-.59,.8-2.02-2.03-2.2-2.95-3.47-1.34-1.86-1.17-3.72-.35-5.66,2.28-5.36,4.75-10.62,7.43-15.8,2.65-5.13,5.75-10.46,5.9-16.17,.08-3.11,.53-5.06,2.32-7.44,2.29-3.05,6.15-6.37,3.86-10.52-2.9-5.27-1.81-9.16,1.65-13.41,1.64-2.01,2.08-5.01,3.74-7,3.15-3.77,.33-5.13-2.26-6.52-1.09-.59-2.56-.59-3.87-.66-5.01-.24-5.98-1.4-4.55-5.99,2.92-9.36,5.57-18.83,9-28,3.18-8.52,1.29-16.36-1.65-24.24-1.99-5.33-7.64-5.33-11.71-7.63-.72-.41-1.44-.94-2.22-1.11-1.53-.34-3.36-2.56-4.5-.71-1.09,1.78-1.63,4.14-.55,6.63,3.13,7.24,6.17,14.57,5.12,22.79-.34,2.68,.08,5.24,1.21,7.75,5.29,11.7,3.48,22.29-5.13,31.79-.49,.54-.61,1.49-.72,2.27-.44,3.13-.69,6.29-1.21,9.4-1.55,9.25,.05,18.64-1.32,27.88-.45,3.05-.91,5.86,1.04,8.58,1.31,1.83,.67,3.22-1.09,4.61-4.5,3.55-4.64,6.8-.78,11.29,2.23,2.6,.71,9.27-2.5,9.83-6.84,1.2-3.76,6.44-3.99,9.93-.27,3.97,3.15,2.04,5.71,2.17Zm-56.43-67.74c.7,9.63-6.46,18.35-2.35,28.11,.26,.6-.06,1.72-.5,2.3-1.5,1.96-1.08,4.13-.86,6.24,.11,1.08-.52,2.59,.74,3.19,1.45,.69,2.45-.75,3.43-1.48,3.06-2.29,6.02-4.72,8.95-7.18,6.2-5.19,6.37-5.3,2.99-12.49-3.14-6.68-5.92-13.67-12.41-18.68Zm-49.89-89.18c-.12,1.02-.27,1.38-.18,1.65,1.51,4.39,6.18,6.75,7.12,11.77,.34,1.83,2.15-.52,2.55-1.4,1.7-3.8,4.59-7.81-.91-11.12-.59-.36-.84-1.43-1.07-2.22-.65-2.27-1.81-4.41-4.4-3.73-2.82,.74-.27,2.93-.53,4.44-.08,.47,.16,.98,.16,1.48,0,.67-.27,1.62-.9,1.43-.6-.18-.96-1.15-1.83-2.3Zm84.15,49.53c1.51-.68,4.1-.11,4.19-2.51,.09-2.19-1.14-4.27-3.56-4.78-1.79-.38-3.25-.25-4.67-2.24-1.14-1.6-4.21-2.43-6.59-.93-.77,.49,2.38,9.39,3.3,9.27,2.58-.32,4.84,.84,7.33,1.2Zm-102.37-57.18c3.73,1.69,6.54,4.41,9.42,7.08,1.1,1.02,3.08,1.87,4.02,.7,1.15-1.43,1.69-3.58,1.9-5.49,.16-1.53-1.17-2.31-2.75-1.74-1.19,.43-1.55-.66-1.91-1.12-3.51-4.68-6.94-5.19-10.68,.57Zm169.46,2.33c-.46-2.54-2.4-3.92-2.1-6.38,.23-1.82-9.51-5.36-11.05-4.16-.35,.27-.65,.79-.69,1.22-.29,3.48,4.44,8.98,8.08,9.3,1.79,.16,3.6,.03,5.75,.03Zm-121.25,141.18c1.98-2.21,5.53-1.56,3.93-4.47-.87-1.59-1.46-2.1,.39-2.55,1.26-.3,3.19-1.16,3.6,1.2,.4,2.26,1.13,4.43,1.13,6.83,0,3.4-.49,7.02,1.79,11.25,.74-8.61-1.18-16-.89-23.46,.07-1.67-1.14-1.82-2.37-1.8-.94,.01-1.82-.23-1.8,1.47,.04,5.02-2.34,1.76-3.93,1.03-.54,3.04-1.08,6.09-1.86,10.51ZM76.11,123.13c-.97,3.44-3.19,3.58-5.01,1.98-3.66-3.21-3.61-.07-3.58,2.04,.03,2.53,.57,5.1,1.21,7.57,.37,1.43,1.82,1.81,3.26,1.56,.97-.17,1.71-.92,.99-1.71-3.06-3.38,1.03-5.81,2.08-6.18,3.38-1.21,2.07-2.75,1.05-5.26Zm90.25,131.01c-1.14,4.92-1.77,9.04-3.1,12.93-.96,2.79-1.06,5.52-1.03,8.33,.01,1.28,.83,2.65,2.14,1.37,1.77-1.73,5.33-3.14,2.36-6.72-1.72-2.08-1.52-4.42-.09-6.49,1.96-2.85,1.55-5.57-.28-9.4Zm-53.33-104.64c-2.28-1.01-3.69-1.09-5.22,.53-2.24,2.36-5.02,4.15-8.3,4.63-3.15,.46-2.97,3.02-3.71,5.07-.32,.9-1.16,1.86-.15,2.69,1.08,.88,1.71-.42,2.5-.82,5.72-2.94,8.47-9.37,14.88-12.08Zm-61.23,38.84c-2.09,.27-2.11,1.25-2.2,1.98-.36,3.24,.9,6.28,1.85,9.19,.98,3-3.77,4.85-.97,7.9,.54,.59-.56,2.57,1.39,2.45,1.65-.1,1.32-1.58,1.42-2.7,.57-6.42-2.01-12.41-1.5-18.82Zm22.86,87.09c3.94-8.64,1.2-16.16,1.04-23.62-1.36,1.97-1.23,3.98-.88,6.18,.48,3.07,1.54,6.6-.69,9.16-2.4,2.75-1.01,4.7,.53,8.27Zm97.32-129.02v.12c.48,.04,.99,.19,1.45,.09,1.66-.37,1.96-1.71,1.78-3.07-.21-1.57-.04-3.68-2.08-4.04-1.41-.25-1.73,.95-1.38,2.37,.29,1.2-.89,1.4-1.6,1.1-1.86-.78-3.89-1.4-4.06,1.36-.18,2.92,2.32,1.79,3.93,1.84,.65,.02,1.3,.15,1.96,.23Zm77.08,17.16c-.27-3.62-1.22-6.7-3.34-9.36-.51-.64-1.19-1.38-2.02-.74-.77,.59-.38,1.38,.09,2.16,1.56,2.62,2.14,5.83,5.27,7.94Zm16.4,97.58c-.82,3.68-1.77,7.34,.05,12.05,1.83-4.78,1.29-8.43-.05-12.05Zm-32.38-114.09c2.66,1.14,4.14,3.35,6.79,2.91,.27-.04,.71-2.23,.3-2.63-1.9-1.86-4.13-2-7.09-.28Z"/><path d="M291,200.87c.6-13.59-3.37-27.04-1.35-40.68,2.63,13.48,2.17,27.08,1.35,40.68Z"/><path d="M287.14,162.52c-2.41-8.64-4.72-16.51-8.18-23.96-.29-.63-.62-1.24,.05-1.76,.72-.56,1.77-.67,2.29-.07,.85,.97,1.78,2.16,1.95,3.37,1.04,7.25,5.65,13.82,3.88,22.42Z"/><path d="M116.5,60.13c-7.78,1.88-14.74,4.03-18.42,11.47,1.12-6.72,6.35-10.39,10.22-14.93,.41-.48,3.45,.75,4.79,1.8,.87,.68,2.07,.58,3.41,1.66Z"/><path d="M14.48,210.93c1.38,10.47,5.59,20.18,6.8,30.56-3.24-10.01-8.04-19.66-6.8-30.56Z"/><path d="M125.85,330.63c-5.33,.15-10.24-1.74-15.17-3.61,5.37-.35,10.02,2.67,15.17,3.61Z"/><path d="M84.68,73.37c.77-1.72,2.85-2.33,2.65-4.92-.09-1.16,1.74-1.7,2.78-1.59,1.34,.14-.2,.88-.03,1.27,.47,1.1,1.59,2.15-.46,2.93-1.69,.64-3.3,1.53-4.94,2.31Z"/><path d="M196.4,62.38c-3.74-1.19-7.48-2.38-11.21-3.56l.25-.95c3.72,1.1,7.44,2.19,11.15,3.29l-.19,1.22Z"/><path d="M100.89,139.25c1.67-1,2.21-5.68,5.22-1.82,.49,.62,2.86,3.21,.44,4.02-1.61,.54-5.32,2.08-5.53-2.37,0,0-.13,.16-.13,.16Z"/></g></g></svg>